<svg xmlns="http://www.w3.org/2000/svg" width="28" height="37" viewBox="0 0 28 37"><path fill="#f6f6f6" d="M15.36 27.5a23.5 23.5 0 0 1-1.71 7.35c-.31.7-.88 1.38-1.14 2.15h-.12v-.57c.22-.33.11-.78.23-1.24.57-2.18.6-5.09-.34-6.9-1.62-3.12-4.86-2.07-8.1-3.4a6.21 6.21 0 0 1-2.84-2.72l-.68-1.92A7.46 7.46 0 0 1 1 16.17c1.55-4.07 5.43-5.85 10.14-3.62v-.34c-.4-.55-.27-1.37-.46-2.15-.49-2.11-.87-9.04 1.49-9.06.63.46 1.86.44 1.93 1.47-.18.2-.2.29-.22.68h.11v-.11c.49-.52.62-1.69 1.48-1.81.69.6 1.84.73 2.05 1.8a8.74 8.74 0 0 0-1.37 2.95h.23c.72-.94 3.66-3.62 5.02-3.4.4.65.81 1.29 1.02 2.16-.72.25-1.05.94-1.6 1.35-2 1.5-3.6 3.7-4.9 5.9h.35c.78-.62 3.99-.91 5.35-.57 3.62.9 4.63 2.13 5.47 5.77.12.5.28 1.7.12 2.38-1.1 4.72-3.4 7.1-8.2 8.15-1.3.28-2.57-.17-3.65-.23z"/></svg>